<?xml version="1.0" encoding="UTF-8"?>
<svg width="200" height="200" viewBox="0 0 200 200" fill="none" xmlns="http://www.w3.org/2000/svg">
  <rect width="200" height="200" fill="#F3F4F6"/>
  <path d="M80 80H120V120H80V80Z" fill="#E5E7EB"/>
  <path d="M100 90C94.4772 90 90 94.4772 90 100C90 105.523 94.4772 110 100 110C105.523 110 110 105.523 110 100C110 94.4772 105.523 90 100 90Z" fill="#9CA3AF"/>
  <path d="M100 95C97.2386 95 95 97.2386 95 100C95 102.761 97.2386 105 100 105C102.761 105 105 102.761 105 100C105 97.2386 102.761 95 100 95Z" fill="#6B7280"/>
</svg> 